<svg xmlns="http://www.w3.org/2000/svg" xmlns:xlink="http://www.w3.org/1999/xlink" width="500" zoomAndPan="magnify" viewBox="0 0 375 374.999991" height="500" preserveAspectRatio="xMidYMid meet" version="1.0"><defs><g/><clipPath id="e244123a8a"><path d="M 375 75 L 375 300 C 375 319.890625 367.097656 338.96875 353.03125 353.03125 C 338.96875 367.097656 319.890625 375 300 375 L 75 375 C 55.109375 375 36.03125 367.097656 21.96875 353.03125 C 7.902344 338.96875 0 319.890625 0 300 L 0 75 C 0 33.578125 33.578125 0 75 0 L 300 0 C 319.890625 0 338.96875 7.902344 353.03125 21.96875 C 367.097656 36.03125 375 55.109375 375 75 Z M 375 75 " clip-rule="nonzero"/></clipPath><clipPath id="c476ee7660"><path d="M 0 0 L 375 0 L 375 375 L 0 375 Z M 0 0 " clip-rule="nonzero"/></clipPath><clipPath id="9caa85c708"><path d="M 375 75 L 375 300 C 375 319.890625 367.097656 338.96875 353.03125 353.03125 C 338.96875 367.097656 319.890625 375 300 375 L 75 375 C 55.109375 375 36.03125 367.097656 21.96875 353.03125 C 7.902344 338.96875 0 319.890625 0 300 L 0 75 C 0 33.578125 33.578125 0 75 0 L 300 0 C 319.890625 0 338.96875 7.902344 353.03125 21.96875 C 367.097656 36.03125 375 55.109375 375 75 Z M 375 75 " clip-rule="nonzero"/></clipPath><clipPath id="f4a13dcba6"><rect x="0" width="375" y="0" height="375"/></clipPath></defs><g clip-path="url(#e244123a8a)"><g transform="matrix(1, 0, 0, 1, 0, 0)"><g clip-path="url(#f4a13dcba6)"><g clip-path="url(#c476ee7660)"><g clip-path="url(#9caa85c708)"><rect x="-82.5" width="540" fill="#000000" height="539.999987" y="-82.499998" fill-opacity="1"/></g></g></g></g></g><g fill="#ffffff" fill-opacity="1"><g transform="translate(78.374999, 307.742829)"><g><path d="M 29 0 L 29 -223.125 L 124.234375 -223.125 C 137.960938 -223.125 149.582031 -220.960938 159.09375 -216.640625 C 168.613281 -212.316406 175.816406 -206.160156 180.703125 -198.171875 C 185.585938 -190.179688 188.03125 -180.742188 188.03125 -169.859375 C 188.03125 -159.992188 185.640625 -151.296875 180.859375 -143.765625 C 176.078125 -136.234375 169.207031 -130.179688 160.25 -125.609375 L 160.25 -122.40625 C 174.289062 -118.738281 185.125 -112.070312 192.75 -102.40625 C 200.382812 -92.738281 204.203125 -80.882812 204.203125 -66.84375 C 204.203125 -45.476562 197.765625 -28.992188 184.890625 -17.390625 C 172.023438 -5.796875 152.925781 0 127.59375 0 Z M 115.078125 -134.15625 C 135.628906 -134.15625 145.90625 -143.410156 145.90625 -161.921875 C 145.90625 -171.390625 143.359375 -178.4375 138.265625 -183.0625 C 133.179688 -187.695312 125.453125 -190.015625 115.078125 -190.015625 L 73.109375 -190.015625 L 73.109375 -134.15625 Z M 123.15625 -34.953125 C 147.476562 -34.953125 159.640625 -45.988281 159.640625 -68.0625 C 159.640625 -90.25 147.476562 -101.34375 123.15625 -101.34375 L 73.109375 -101.34375 L 73.109375 -34.953125 Z M 123.15625 -34.953125 "/></g></g></g></svg>