<svg xmlns="http://www.w3.org/2000/svg" xmlns:xlink="http://www.w3.org/1999/xlink" width="1500" zoomAndPan="magnify" viewBox="0 0 1125 277.499997" height="370" preserveAspectRatio="xMidYMid meet" version="1.0"><defs><g/><clipPath id="128419ab43"><path d="M 1.011719 0 L 352.671875 0 L 352.671875 277 L 1.011719 277 Z M 1.011719 0 " clip-rule="nonzero"/></clipPath><clipPath id="1ece2d8d6b"><path d="M 60.902344 0 L 292.242188 0 C 325.320312 0 352.132812 26.816406 352.132812 59.890625 L 352.132812 217.109375 C 352.132812 250.1875 325.320312 277 292.242188 277 L 60.902344 277 C 27.828125 277 1.011719 250.1875 1.011719 217.109375 L 1.011719 59.890625 C 1.011719 26.816406 27.828125 0 60.902344 0 Z M 60.902344 0 " clip-rule="nonzero"/></clipPath><clipPath id="3ed3f030dc"><path d="M 0.0117188 0 L 351.21875 0 L 351.21875 277 L 0.0117188 277 Z M 0.0117188 0 " clip-rule="nonzero"/></clipPath><clipPath id="1f0d24107d"><path d="M 59.902344 0 L 291.242188 0 C 324.320312 0 351.132812 26.816406 351.132812 59.890625 L 351.132812 217.109375 C 351.132812 250.1875 324.320312 277 291.242188 277 L 59.902344 277 C 26.828125 277 0.0117188 250.1875 0.0117188 217.109375 L 0.0117188 59.890625 C 0.0117188 26.816406 26.828125 0 59.902344 0 Z M 59.902344 0 " clip-rule="nonzero"/></clipPath><clipPath id="bf9945b0d1"><rect x="0" width="352" y="0" height="277"/></clipPath><clipPath id="f92e5bcf9a"><rect x="0" width="139" y="0" height="270"/></clipPath><clipPath id="c9dde52b48"><rect x="0" width="513" y="0" height="277"/></clipPath></defs><g clip-path="url(#128419ab43)"><g clip-path="url(#1ece2d8d6b)"><g transform="matrix(1, 0, 0, 1, 1, 0)"><g clip-path="url(#bf9945b0d1)"><g clip-path="url(#3ed3f030dc)"><g clip-path="url(#1f0d24107d)"><path fill="#000000" d="M 0.0117188 0 L 351.671875 0 L 351.671875 277 L 0.0117188 277 Z M 0.0117188 0 " fill-opacity="1" fill-rule="nonzero"/></g></g></g></g></g></g><g transform="matrix(1, 0, 0, 1, 107, 3)"><g clip-path="url(#f92e5bcf9a)"><g fill="#ffffff" fill-opacity="1"><g transform="translate(0.801376, 211.32171)"><g><path d="M 18.265625 0 L 18.265625 -140.59375 L 78.28125 -140.59375 C 86.9375 -140.59375 94.257812 -139.226562 100.25 -136.5 C 106.25 -133.78125 110.785156 -129.90625 113.859375 -124.875 C 116.941406 -119.84375 118.484375 -113.894531 118.484375 -107.03125 C 118.484375 -100.8125 116.972656 -95.328125 113.953125 -90.578125 C 110.941406 -85.835938 106.617188 -82.023438 100.984375 -79.140625 L 100.984375 -77.125 C 109.828125 -74.820312 116.648438 -70.625 121.453125 -64.53125 C 126.265625 -58.4375 128.671875 -50.96875 128.671875 -42.125 C 128.671875 -28.65625 124.613281 -18.265625 116.5 -10.953125 C 108.394531 -3.648438 96.359375 0 80.390625 0 Z M 72.515625 -84.53125 C 85.460938 -84.53125 91.9375 -90.363281 91.9375 -102.03125 C 91.9375 -108 90.332031 -112.441406 87.125 -115.359375 C 83.914062 -118.273438 79.046875 -119.734375 72.515625 -119.734375 L 46.0625 -119.734375 L 46.0625 -84.53125 Z M 77.609375 -22.015625 C 92.929688 -22.015625 100.59375 -28.972656 100.59375 -42.890625 C 100.59375 -56.867188 92.929688 -63.859375 77.609375 -63.859375 L 46.0625 -63.859375 L 46.0625 -22.015625 Z M 77.609375 -22.015625 "/></g></g></g></g></g><g transform="matrix(1, 0, 0, 1, 382, 0)"><g clip-path="url(#c9dde52b48)"><g fill="#000000" fill-opacity="1"><g transform="translate(0.568191, 226.827978)"><g><path d="M 21.515625 0 L 21.515625 -165.5 L 92.15625 -165.5 C 102.34375 -165.5 110.960938 -163.894531 118.015625 -160.6875 C 125.066406 -157.488281 130.40625 -152.925781 134.03125 -147 C 137.65625 -141.070312 139.46875 -134.070312 139.46875 -126 C 139.46875 -118.675781 137.691406 -112.222656 134.140625 -106.640625 C 130.597656 -101.054688 125.503906 -96.566406 118.859375 -93.171875 L 118.859375 -90.796875 C 129.273438 -88.078125 137.3125 -83.128906 142.96875 -75.953125 C 148.632812 -68.785156 151.46875 -59.992188 151.46875 -49.578125 C 151.46875 -33.734375 146.691406 -21.507812 137.140625 -12.90625 C 127.597656 -4.300781 113.429688 0 94.640625 0 Z M 85.359375 -99.5 C 100.597656 -99.5 108.21875 -106.367188 108.21875 -120.109375 C 108.21875 -127.128906 106.332031 -132.351562 102.5625 -135.78125 C 98.789062 -139.21875 93.054688 -140.9375 85.359375 -140.9375 L 54.21875 -140.9375 L 54.21875 -99.5 Z M 91.359375 -25.921875 C 109.390625 -25.921875 118.40625 -34.109375 118.40625 -50.484375 C 118.40625 -66.941406 109.390625 -75.171875 91.359375 -75.171875 L 54.21875 -75.171875 L 54.21875 -25.921875 Z M 91.359375 -25.921875 "/></g></g></g><g fill="#000000" fill-opacity="1"><g transform="translate(162.446156, 226.827978)"><g><path d="M 123.390625 -55.359375 L 43.125 -55.359375 C 44.03125 -44.492188 47.125 -36.585938 52.40625 -31.640625 C 57.695312 -26.691406 64.90625 -24.21875 74.03125 -24.21875 C 81.207031 -24.21875 87.019531 -25.554688 91.46875 -28.234375 C 95.925781 -30.921875 99.507812 -34.984375 102.21875 -40.421875 L 104.59375 -40.421875 L 125.4375 -27.0625 C 121.351562 -18.300781 115.195312 -11.203125 106.96875 -5.765625 C 98.75 -0.335938 87.769531 2.375 74.03125 2.375 C 61.125 2.375 49.972656 -0.078125 40.578125 -4.984375 C 31.179688 -9.890625 23.9375 -17.191406 18.84375 -26.890625 C 13.75 -36.585938 11.203125 -48.414062 11.203125 -62.375 C 11.203125 -76.5625 13.878906 -88.519531 19.234375 -98.25 C 24.597656 -107.988281 31.84375 -115.253906 40.96875 -120.046875 C 50.101562 -124.847656 60.367188 -127.25 71.765625 -127.25 C 89.429688 -127.25 102.960938 -122.566406 112.359375 -113.203125 C 121.753906 -103.847656 126.453125 -90.113281 126.453125 -72 C 126.453125 -65.4375 126.222656 -60.34375 125.765625 -56.71875 Z M 96.453125 -75.625 C 96.148438 -85.132812 93.941406 -92.054688 89.828125 -96.390625 C 85.710938 -100.734375 79.691406 -102.90625 71.765625 -102.90625 C 55.921875 -102.90625 46.601562 -93.8125 43.8125 -75.625 Z M 96.453125 -75.625 "/></g></g></g><g fill="#000000" fill-opacity="1"><g transform="translate(298.174615, 226.827978)"><g><path d="M 18 0 L 18 -124.859375 L 48.109375 -124.859375 L 48.109375 -106.53125 L 50.484375 -105.953125 C 58.265625 -120.148438 70.867188 -127.25 88.296875 -127.25 C 102.710938 -127.25 113.296875 -123.320312 120.046875 -115.46875 C 126.804688 -107.625 130.1875 -96.191406 130.1875 -81.171875 L 130.1875 0 L 98.828125 0 L 98.828125 -77.3125 C 98.828125 -85.613281 97.164062 -91.59375 93.84375 -95.25 C 90.519531 -98.914062 85.203125 -100.75 77.890625 -100.75 C 68.898438 -100.75 61.894531 -97.84375 56.875 -92.03125 C 51.863281 -86.21875 49.359375 -77.085938 49.359375 -64.640625 L 49.359375 0 Z M 18 0 "/></g></g></g><g fill="#000000" fill-opacity="1"><g transform="translate(444.43079, 226.827978)"><g><path d="M 33.625 -139.8125 C 27.957031 -139.8125 23.347656 -141.523438 19.796875 -144.953125 C 16.253906 -148.390625 14.484375 -152.828125 14.484375 -158.265625 C 14.484375 -163.617188 16.253906 -168.007812 19.796875 -171.4375 C 23.347656 -174.875 27.957031 -176.59375 33.625 -176.59375 C 37.394531 -176.59375 40.75 -175.800781 43.6875 -174.21875 C 46.632812 -172.632812 48.921875 -170.460938 50.546875 -167.703125 C 52.171875 -164.953125 52.984375 -161.804688 52.984375 -158.265625 C 52.984375 -154.710938 52.171875 -151.539062 50.546875 -148.75 C 48.921875 -145.957031 46.632812 -143.769531 43.6875 -142.1875 C 40.75 -140.601562 37.394531 -139.8125 33.625 -139.8125 Z M 18 0 L 18 -124.859375 L 49.359375 -124.859375 L 49.359375 0 Z M 18 0 "/></g></g></g></g></g></svg>